# xmcd
#
# Track frame offsets:
#  150
#  16874
#  34352
#  52256
#  70647
#  85171
#  108737
#  119552
#  135375
#  152785
#  169061
#  185344
#  206094
#  223992
#  238181
#  256016
#  272505
#  290642
#  302727
#  317088
#
# Disc length: 4462 seconds
#
# Revision: 0
# Processed by: cddbd v1.5.1PL2 Copyright (c) Steve Scherf et al.
# Submitted via: Collectorz.com_Music_Collector 6.9
#
DISCID=2d116c14
DTITLE=Various Artist - Kerrang! - The Album [CD 1)
DYEAR=2001
DGENRE=General Metal - Rock
TTITLE0=Limp Bizkit - My Generation
TTITLE1=Puddle Of Mudd - Control
TTITLE2=Deftones - Back To School (Mini Maggit)
TTITLE3=Wheatus - Teenage Dirtbag
TTITLE4=Feeder - Buck Rogers
TTITLE5=Filter - Hey Man Nice Shot
TTITLE6=Bloodhound Gang - The Ballad Of Chasey Lain
TTITLE7=Ash - Burn Baby Burn
TTITLE8=My Vitriol - Always: Your Way
TTITLE9=Raging Speedhorn - The Gush
TTITLE10=The Step Kings - Inbalance
TTITLE11=Vacant Stare - Come Face Up
TTITLE12=Kittie - Charlotte
TTITLE13=Vast - Free 
TTITLE14=(HED) Planet Earth - Killing Time
TTITLE15=Guano Apes - Dodel Up
TTITLE16=Cold - Just Got Wicked
TTITLE17=Downer - Last Time
TTITLE18=Spineshank - Synthetic
TTITLE19=Machine Head - From This Day
EXTD=
EXTT0=
EXTT1=
EXTT2=
EXTT3=
EXTT4=
EXTT5=
EXTT6=
EXTT7=
EXTT8=
EXTT9=
EXTT10=
EXTT11=
EXTT12=
EXTT13=
EXTT14=
EXTT15=
EXTT16=
EXTT17=
EXTT18=
EXTT19=
PLAYORDER=
